<svg width="507" height="386" viewBox="0 0 507 386" fill="none" xmlns="http://www.w3.org/2000/svg">
<path d="M471.672 107.574C471.223 106.386 470.76 105.206 470.283 104.033C470.164 103.741 470.037 103.454 469.917 103.163C469.554 102.286 469.192 101.409 468.813 100.541C468.52 99.8666 468.213 99.2016 467.911 98.5336C467.695 98.0546 467.486 97.5726 467.265 97.0966C466.962 96.4426 466.644 95.7966 466.331 95.1476C466.099 94.6666 465.874 94.1796 465.637 93.7006C465.275 92.9686 464.899 92.2456 464.525 91.5196C464.327 91.1326 464.134 90.7416 463.932 90.3566C463.513 89.5596 463.08 88.7716 462.648 87.9836C462.481 87.6766 462.32 87.3676 462.15 87.0626C461.684 86.2256 461.204 85.3986 460.722 84.5726C460.577 84.3236 460.439 84.0696 460.292 83.8216C459.711 82.8376 459.117 81.8616 458.516 80.8916C458.463 80.8076 458.413 80.7196 458.361 80.6356C457.747 79.6496 457.119 78.6736 456.483 77.7026C456.439 77.6366 456.397 77.5676 456.354 77.5006C455.792 76.6476 455.217 75.8056 454.639 74.9646C454.515 74.7836 454.396 74.5996 454.272 74.4206C453.678 73.5646 453.071 72.7176 452.459 71.8746C452.345 71.7166 452.235 71.5556 452.12 71.3976C451.391 70.4016 450.651 69.4146 449.899 68.4366L449.898 68.4356C449.157 67.4716 448.404 66.5176 447.64 65.5736C447.628 65.5586 447.617 65.5436 447.605 65.5286C446.844 64.5896 446.073 63.6596 445.291 62.7386C445.274 62.7196 445.259 62.7006 445.243 62.6806C432.198 47.3456 416.112 34.7036 397.692 25.4646L400.784 18.7206C402.275 15.4706 400.847 11.6276 397.596 10.1386C394.348 8.64861 390.504 10.0746 389.014 13.3266L385.891 20.1396C350.409 5.89161 311.453 5.4636 275.47 19.0736C237.449 33.4566 207.303 61.7866 190.588 98.8446C189.117 102.104 190.567 105.938 193.827 107.408L319.84 164.25L283.553 243.422H178.259L150.628 188.712C149.526 186.53 147.292 185.156 144.85 185.156H105.295C103.06 185.156 100.982 186.309 99.8 188.207C98.617 190.105 98.499 192.478 99.486 194.485L143.382 283.826C144.47 286.041 146.724 287.445 149.193 287.445H153.181L141.724 313.308C140.836 315.31 141.023 317.625 142.217 319.461C143.411 321.296 145.453 322.403 147.643 322.403H177.372C179.849 322.403 182.107 320.991 183.192 318.765L198.456 287.444H263.377L252.73 310.673C252.626 310.899 252.571 311.132 252.495 311.361C208.541 312.308 172.74 326.333 148.982 339.16C118.116 355.825 100.689 373.732 99.962 374.487C97.359 377.187 97.439 381.483 100.138 384.089C102.833 386.694 107.135 386.618 109.743 383.923C109.91 383.751 126.725 366.542 155.877 350.884C182.59 336.536 225.5 320.56 278.224 325.968C379.456 336.341 418.292 382.991 418.66 383.444C420.002 385.125 421.978 386 423.974 386C425.46 386 426.957 385.515 428.21 384.515C431.143 382.173 431.622 377.897 429.28 374.963C427.604 372.865 387.014 323.453 279.61 312.447C275.199 311.995 270.862 311.699 266.586 311.516L277.618 287.445H320.919L336.183 318.766C337.267 320.992 339.527 322.404 342.003 322.404H371.732C373.922 322.404 375.964 321.297 377.158 319.462C378.352 317.626 378.539 315.311 377.651 313.309L366.194 287.446H369.017C372.592 287.446 375.491 284.548 375.491 280.971V249.896C375.491 246.321 372.593 243.422 369.017 243.422H297.795L331.643 169.574L459.493 227.243C460.337 227.625 461.245 227.816 462.154 227.816C462.929 227.816 463.706 227.676 464.446 227.397C466.051 226.789 467.35 225.569 468.055 224.003C484.772 186.945 486.057 145.597 471.672 107.574ZM173.326 309.457H157.592L167.344 287.445H184.053L173.326 309.457ZM361.785 309.457H346.051L335.324 287.445H352.033L361.785 309.457ZM362.544 274.497H356.245H324.967H194.409H163.131H153.225L115.69 198.103H140.868L168.499 252.814C169.601 254.995 171.835 256.37 174.278 256.37H362.546V274.497H362.544ZM392.603 182.866L337.039 157.803L325.238 152.479L271.297 128.148C288.244 88.8246 312.762 61.2676 344.239 46.1856C358.141 39.5246 370.533 36.8456 378.73 35.7686C381.903 35.3516 384.467 35.1666 386.218 35.0956C387.286 36.4666 388.783 38.5146 390.499 41.1626C394.985 48.0876 401.011 59.2556 405.112 74.1846C414.372 107.879 410.161 144.415 392.603 182.866Z" fill="black"/>
<path d="M77.614 118.725C100.824 118.725 119.708 99.8411 119.708 76.6311C119.708 53.4211 100.824 34.5371 77.614 34.5371C54.404 34.5371 35.521 53.4211 35.521 76.6311C35.521 99.8411 54.404 118.725 77.614 118.725ZM77.614 47.4851C93.685 47.4851 106.76 60.5591 106.76 76.6311C106.76 92.7031 93.686 105.777 77.614 105.777C61.542 105.777 48.468 92.7031 48.468 76.6311C48.468 60.5591 61.542 47.4851 77.614 47.4851Z" fill="black"/>
<path d="M77.6891 28.485C81.2651 28.485 84.1631 25.588 84.1631 22.011V6.474C84.1621 2.898 81.2651 0 77.6891 0C74.1131 0 71.2141 2.898 71.2141 6.474V22.012C71.2141 25.588 74.1131 28.485 77.6891 28.485Z" fill="black"/>
<path d="M77.6891 125.596C74.1131 125.596 71.2141 128.493 71.2141 132.07V146.313C71.2141 149.888 74.1121 152.787 77.6891 152.787C81.2661 152.787 84.1631 149.889 84.1631 146.313V132.07C84.1621 128.493 81.2651 125.596 77.6891 125.596Z" fill="black"/>
<path d="M125.596 77.6879C125.596 81.2639 128.494 84.1629 132.07 84.1629H146.313C149.889 84.1629 152.787 81.2649 152.787 77.6879C152.787 74.1129 149.89 71.2139 146.313 71.2139H132.07C128.494 71.2139 125.596 74.1119 125.596 77.6879Z" fill="black"/>
<path d="M6.474 84.1619H22.012C25.588 84.1619 28.486 81.2639 28.486 77.6869C28.486 74.1119 25.589 71.2129 22.012 71.2129H6.474C2.899 71.2129 0 74.1109 0 77.6869C0 81.2639 2.899 84.1619 6.474 84.1619Z" fill="black"/>
<path d="M120.698 111.782C118.169 109.254 114.071 109.252 111.543 111.781C109.014 114.308 109.014 118.408 111.541 120.937L121.942 131.34C123.207 132.605 124.863 133.236 126.521 133.236C128.177 133.236 129.834 132.604 131.098 131.34C133.626 128.813 133.626 124.713 131.099 122.185L120.698 111.782Z" fill="black"/>
<path d="M33.2419 42.6393C34.5069 43.9023 36.1629 44.5353 37.8199 44.5353C39.4759 44.5353 41.1329 43.9023 42.3979 42.6383C44.9249 40.1103 44.9249 36.0103 42.3969 33.4833L31.9929 23.0803C29.4649 20.5543 25.3659 20.5533 22.8369 23.0813C20.3099 25.6103 20.3099 29.7093 22.8389 32.2373L33.2419 42.6393Z" fill="black"/>
<path d="M116.119 44.5335C117.775 44.5335 119.433 43.9005 120.697 42.6365L131.098 32.2365C133.626 29.7085 133.626 25.6095 131.098 23.0815C128.572 20.5535 124.469 20.5535 121.943 23.0815L111.543 33.4825C109.014 36.0095 109.014 40.1095 111.543 42.6365C112.805 43.9005 114.462 44.5335 116.119 44.5335Z" fill="black"/>
<path d="M31.9929 131.341L42.3969 120.938C44.9249 118.41 44.9249 114.311 42.3969 111.783C39.8709 109.255 35.7679 109.255 33.2419 111.783L22.8389 122.187C20.3099 124.714 20.3099 128.814 22.8389 131.341C24.1019 132.606 25.7599 133.237 27.4159 133.237C29.0719 133.237 30.7299 132.605 31.9929 131.341Z" fill="black"/>
<path d="M497.769 120.038C494.234 120.573 491.8 123.871 492.333 127.406C492.563 128.929 492.741 129.974 492.888 130.84C493.199 132.665 493.34 133.497 493.601 136.93C493.857 140.329 496.695 142.916 500.049 142.916C500.212 142.916 500.378 142.909 500.543 142.896C504.107 142.626 506.779 139.519 506.511 135.954C506.22 132.092 506.027 130.865 505.654 128.669C505.517 127.863 505.351 126.892 505.137 125.474C504.604 121.938 501.312 119.501 497.769 120.038Z" fill="black"/>
<path d="M475.711 76.3856C477.8 80.1826 479.748 84.1886 481.499 88.2906C483.5 92.9776 485.298 97.9146 486.845 102.967C487.699 105.755 490.262 107.548 493.033 107.548C493.661 107.548 494.299 107.457 494.929 107.264C498.349 106.217 500.272 102.598 499.226 99.1786C497.545 93.6886 495.588 88.3156 493.408 83.2076C491.488 78.7106 489.351 74.3146 487.056 70.1446C480.88 58.9176 473.348 48.8656 464.667 40.2616C462.129 37.7436 458.03 37.7616 455.513 40.3016C452.995 42.8406 453.013 46.9406 455.553 49.4556C463.351 57.1856 470.133 66.2466 475.711 76.3856Z" fill="black"/>
</svg>
