<svg width="432" height="512" viewBox="0 0 432 512" fill="none" xmlns="http://www.w3.org/2000/svg">
<path d="M121.976 0.543854C88.7763 5.74384 63.9763 17.9438 41.8763 39.8438C21.8763 59.7438 11.1763 78.1438 4.37629 104.544C0.176287 121.044 -1.02371 137.944 0.876287 154.844C7.07629 208.344 24.8763 251.744 58.9763 296.344C62.1763 300.644 73.7763 311.644 78.9763 315.544C89.9763 323.644 105.776 330.744 116.176 332.344L120.776 333.044L116.776 342.144C101.676 377.144 102.076 376.044 104.476 381.144C106.676 385.844 109.576 386.844 120.476 386.844H129.876L130.976 392.544C135.276 414.944 147.676 433.044 164.176 441.144C173.876 445.844 181.376 447.644 196.176 448.844C226.276 451.144 242.976 460.744 252.976 481.344C255.476 486.344 257.376 492.344 258.276 497.344C259.076 501.744 260.176 506.444 260.876 507.644C263.476 512.444 273.976 513.444 278.676 509.444C281.376 507.144 281.476 506.644 281.376 498.644C281.276 489.744 277.976 476.744 273.376 467.744C267.676 456.344 255.876 444.544 242.376 436.844C230.476 430.044 223.176 427.844 209.176 426.744C187.276 424.944 174.776 420.544 165.276 411.144C159.476 405.344 155.376 398.044 154.076 391.344L153.276 386.844H162.176C172.276 386.844 176.576 385.244 177.576 381.344C178.376 377.944 177.676 375.444 172.476 364.344C169.976 359.144 167.976 354.644 167.976 354.344C167.976 354.144 165.976 349.744 163.476 344.644C158.376 334.144 158.176 332.844 161.076 332.844C162.176 332.844 166.476 331.744 170.576 330.344C190.376 323.644 204.176 314.344 216.676 299.044C247.276 261.744 267.976 215.644 276.576 165.844C278.876 152.844 279.176 125.744 277.076 115.344C273.976 99.0438 270.576 89.1438 263.176 74.7438C242.776 34.8438 204.076 7.54385 158.276 0.843842C151.476 -0.0561523 127.376 -0.35614 121.976 0.543854ZM162.976 27.3438C190.176 33.4438 212.076 46.6438 230.376 68.1438C243.576 83.7438 254.176 108.044 256.476 128.144C260.676 165.044 245.676 217.344 219.576 257.244C199.276 288.144 190.276 295.844 162.476 306.044C143.876 312.844 119.576 309.844 97.9763 298.144C80.2763 288.544 64.2763 269.944 48.5763 240.644C27.4763 201.044 17.4763 153.544 23.4763 121.344C30.4763 84.4438 56.1763 51.5439 90.3763 35.8438C102.676 30.2438 110.576 28.0439 128.476 25.4438C134.476 24.5439 155.676 25.7438 162.976 27.3438Z" fill="white"/>
<path d="M303.676 59.7437C285.576 63.7437 280.976 66.6437 280.976 74.0437C280.976 76.8438 281.676 78.6437 283.476 80.3438C286.476 83.4438 290.876 83.5437 300.476 80.8438C332.276 71.7437 365.476 80.5437 389.276 104.344C399.976 115.044 408.176 129.644 412.776 146.044C415.576 156.344 415.076 180.244 411.776 194.544C406.376 217.344 396.576 239.744 383.976 258.244C371.376 276.744 363.076 284.144 347.976 290.144C337.376 294.344 332.676 295.144 322.676 294.544C303.776 293.344 288.776 285.944 274.876 270.944C269.376 264.944 267.876 263.844 265.076 263.844C261.376 263.844 257.376 267.244 256.376 271.344C255.876 273.344 256.576 275.144 259.276 279.144C270.076 295.144 285.976 306.844 302.976 311.444C306.576 312.444 309.676 313.344 309.876 313.444C310.076 313.644 307.276 320.644 303.576 329.144C299.976 337.644 296.976 345.544 296.976 346.744C296.976 347.944 298.076 350.044 299.476 351.344L301.876 353.844H326.876H351.976L353.476 351.444C355.476 348.344 354.876 346.044 348.976 333.344C342.376 319.244 339.976 314.044 339.976 313.444C339.976 313.044 340.776 312.844 341.776 312.844C344.276 312.744 354.476 309.244 360.376 306.344C368.676 302.244 378.476 294.244 384.676 286.544C419.076 243.944 437.876 184.544 430.076 143.944C423.976 112.844 406.476 88.6437 376.976 70.6437C372.376 67.8438 359.176 62.7437 351.276 60.6437C339.676 57.6437 315.576 57.2437 303.676 59.7437Z" fill="white"/>
</svg>
