<svg width="402" height="416" viewBox="0 0 402 416" fill="none" xmlns="http://www.w3.org/2000/svg">
<path d="M236.378 214.99V252.268H301.357C299.032 231.328 281.227 214.99 259.677 214.99H236.378Z" fill="black"/>
<path d="M177.631 135.774H145.012C142.439 135.774 140.352 133.688 140.352 131.114C140.352 128.54 142.438 126.454 145.012 126.454H177.631V89.1756H172.971C170.398 89.1756 168.311 87.0886 168.311 84.5156C168.311 81.9426 170.397 79.8556 172.971 79.8556H177.631V11.0596L105.955 154.414H177.631V135.774Z" fill="black"/>
<path d="M394.626 266.247H306.275H91.9251C89.3521 266.247 87.2651 264.161 87.2651 261.588V247.609H81.6621C62.8911 247.609 33.7691 252.041 19.4521 259.198L8.91309 264.468V312.847H268.996C271.569 312.847 273.655 314.933 273.655 317.506C273.655 320.08 271.569 322.166 268.996 322.166H8.91409V350.125H250.357C309.271 350.124 390.261 321.011 394.626 266.247Z" fill="black"/>
<path d="M66.7291 224.31H96.5851V238.289V252.268H227.058V214.99H187.018V173.052H321.708L186.951 4.60434V6.99634C186.576 -3.01966 184.663 1.80934 182.359 1.80934C179.786 1.80934 177.699 -4.22766 177.699 11.1283V214.99H104.007H96.5851H66.7291C64.1561 214.99 62.0691 217.076 62.0691 219.649C62.0691 222.224 64.1561 224.31 66.7291 224.31ZM187.019 79.8563H219.568C222.142 79.8563 224.228 81.9424 224.228 84.5163C224.228 87.0903 222.142 89.1763 219.568 89.1763H187.019V79.8563ZM187.019 126.454H200.93C203.504 126.454 205.59 128.54 205.59 131.114C205.59 133.687 203.504 135.774 200.93 135.774H187.019V126.454Z" fill="black"/>
<path d="M400.854 399.25C399.676 396.961 396.87 396.061 394.578 397.237C394.205 397.428 356.863 415.951 343.306 398.52C324.596 374.462 289.657 396.511 288.181 397.461C288 397.576 287.829 397.703 287.667 397.843C286.793 398.591 265.993 416.004 244.805 397.843C235.764 390.093 226.588 386.626 217.524 387.542C207.153 388.589 200.323 395.155 198.107 397.604C192.707 400.147 160.075 414.566 147.595 398.52C128.886 374.464 93.948 396.511 92.469 397.461C92.289 397.576 92.118 397.703 91.956 397.843C91.081 398.592 70.281 416.004 49.093 397.843C40.053 390.094 30.874 386.629 21.812 387.542C9.29798 388.805 1.91698 398.123 1.60898 398.52C0.034983 400.543 0.399983 403.446 2.41398 405.032C4.42898 406.617 7.35198 406.268 8.94898 404.262C9.00198 404.196 14.336 397.614 22.854 396.805C29.251 396.195 36.037 398.926 43.028 404.918C64.565 423.379 88.047 413.272 97.737 405.158C100.534 403.453 127.397 387.732 140.237 404.241C146.753 412.618 156.269 415.36 165.944 415.359C183.692 415.357 201.961 406.125 203.13 405.524C203.166 405.504 203.195 405.478 203.231 405.459C203.279 405.433 203.323 405.396 203.371 405.367C203.587 405.239 203.797 405.106 203.984 404.95C204.04 404.902 204.088 404.845 204.142 404.794C204.311 404.639 204.477 404.481 204.619 404.305C204.632 404.289 204.648 404.278 204.661 404.262C204.714 404.196 210.049 397.614 218.566 396.805C224.951 396.195 231.748 398.926 238.739 404.918C260.276 423.379 283.759 413.273 293.45 405.158C296.244 403.453 323.105 387.73 335.95 404.241C342.465 412.618 351.981 415.36 361.656 415.359C379.405 415.357 397.673 406.125 398.841 405.524C401.128 404.349 402.029 401.539 400.854 399.25Z" fill="black"/>
</svg>
