<svg width="33" height="30" viewBox="0 0 33 30" fill="none" xmlns="http://www.w3.org/2000/svg">
<path d="M17.8244 3.18642L4.58274 6.3541L4.18678 5.94893C3.07256 4.79788 1.45189 5.38722 0.87176 7.14602C0.282424 8.95086 0.0798393 10.1572 0.0153806 12.1462C-0.0214529 13.3433 0.00617221 14.0431 0.116673 14.8811C1.15722 22.7634 7.21634 28.841 15.0527 29.8723C16.8759 30.1117 19.7305 30.0012 21.0473 29.6513C21.7656 29.4579 22.3549 28.4818 22.2168 27.7176C22.1523 27.3216 21.7748 26.6402 21.563 26.5205C21.4249 26.4468 22.051 24.8814 26.7197 13.6287C29.6388 6.58431 32.0329 0.700151 32.0329 0.552817C32.0329 0.184482 31.8119 -0.00889441 31.4068 0.000313973C31.2226 0.00952236 25.1082 1.43682 17.8244 3.18642ZM30.3754 1.54732C30.3754 1.59336 30.0531 2.4037 29.648 3.36137L28.9297 5.10176L28.6627 5.05572C28.0181 4.94522 26.821 5.00968 26.3698 5.18463C25.7712 5.41484 25.1082 6.05022 24.8412 6.64877C24.5373 7.33019 24.5373 8.49044 24.8412 9.17187C25.0898 9.72437 25.5871 10.2124 26.1948 10.5071C26.4158 10.6176 26.5908 10.7373 26.5816 10.7741C26.5632 10.811 25.1266 14.2825 23.3863 18.4815L20.2186 26.1245L19.6108 26.2258C18.4966 26.4284 16.526 26.456 15.3934 26.2903C13.5701 26.0232 11.5259 25.2865 10.0709 24.3657C7.93459 23.0305 6.0745 20.977 4.96028 18.7118C4.06707 16.8885 3.67111 15.2862 3.60665 13.1131C3.56982 11.7963 3.58823 11.3727 3.74478 10.4426C3.91053 9.48495 4.38936 7.80902 4.5367 7.66169C4.56432 7.63407 6.72829 7.09998 9.35268 6.47381C11.9771 5.84764 14.1963 5.32276 14.2792 5.29514C14.4265 5.2583 14.4357 5.31355 14.3897 5.78318C14.2792 6.7961 14.8133 8.09448 15.5776 8.67461C16.701 9.53099 18.1191 9.6507 19.3438 8.99691C19.9884 8.6562 20.4488 8.15894 20.7895 7.4499C20.9921 7.00789 21.0289 6.82373 21.0289 6.05943C21.0289 5.22147 21.0105 5.13859 20.6882 4.51242L20.3567 3.85863L20.5961 3.79417C21.3328 3.60079 30.1636 1.48286 30.2649 1.47366C30.3202 1.46445 30.3754 1.50128 30.3754 1.54732ZM19.2517 4.56767C20.0528 5.38722 20.0897 6.58431 19.353 7.44069C18.469 8.48124 16.8575 8.45361 16.038 7.37623C15.5315 6.71323 15.421 5.82922 15.7709 5.16622C15.8906 4.94522 16.038 4.88076 17.2719 4.57688C18.0178 4.39271 18.6992 4.23617 18.7729 4.23617C18.8557 4.22696 19.0675 4.38351 19.2517 4.56767ZM28.3864 6.26202C28.4325 6.29885 28.147 7.0171 27.1985 9.27316L27.0696 9.57703L26.7197 9.39287C26.2869 9.18107 26.0935 8.96928 25.9094 8.52728C25.7068 8.04844 25.7344 7.64327 26.0107 7.09077C26.3422 6.43698 26.9131 6.1331 27.7695 6.17914C28.0825 6.19756 28.368 6.23439 28.3864 6.26202ZM3.3304 6.82373C3.40407 6.93423 3.34882 7.24731 3.09098 8.06686C2.50164 9.96379 2.42798 10.4795 2.42798 12.7447C2.43719 14.4851 2.46481 14.8995 2.63977 15.673C3.34882 18.8499 4.77612 21.4098 7.04138 23.5554C9.96964 26.3271 13.8187 27.7544 17.8981 27.5886C18.6071 27.561 19.4451 27.4873 19.7674 27.4229C20.4672 27.294 20.7527 27.3584 20.9276 27.6899C21.0565 27.957 21.0105 28.2424 20.7895 28.4174C20.4856 28.6568 19.3438 28.7673 17.2995 28.7673C15.5039 28.7581 15.0987 28.7305 14.2608 28.5555C9.15931 27.4505 5.0892 24.3104 2.84235 19.7431C1.59922 17.22 1.01909 14.1812 1.25851 11.474C1.44268 9.46653 1.99518 7.27494 2.43719 6.83294C2.69502 6.5751 3.17386 6.56589 3.3304 6.82373Z" fill="white"/>
<path d="M23.1008 4.56739C22.2904 5.0186 22.1799 5.1291 22.1799 5.47902C22.1799 5.80132 22.4378 6.06836 22.7601 6.06836C22.9442 6.06836 24.04 5.49744 24.3255 5.25802C24.5373 5.07385 24.5281 4.5766 24.3163 4.38322C24.0584 4.15302 23.7638 4.19906 23.1008 4.56739Z" fill="white"/>
<path d="M10.4669 8.64658C10.2274 8.79392 10.1077 9.07017 10.1722 9.33721C10.209 9.47534 10.4945 9.7608 10.8904 10.0739C11.6639 10.6632 12.0323 10.7369 12.2901 10.3501C12.5203 9.99101 12.3914 9.71476 11.7008 9.16225C11.0378 8.62817 10.7247 8.49925 10.4669 8.64658Z" fill="white"/>
<path d="M18.6347 10.7282C18.3309 10.8018 17.9901 10.8755 17.8796 10.9031C17.585 10.9676 17.3916 11.207 17.3916 11.5017C17.3916 12.0634 17.7968 12.1647 18.9294 11.916C19.5924 11.7595 19.8779 11.5477 19.8779 11.1794C19.8779 10.9584 19.6569 10.7189 19.3714 10.6453C19.2701 10.6269 18.9386 10.6637 18.6347 10.7282Z" fill="white"/>
<path d="M5.70621 11.3819C5.51284 11.5384 5.48521 11.6582 5.44838 12.5422C5.38392 13.6472 5.44838 13.8037 5.918 13.8037C6.44288 13.8037 6.53497 13.6656 6.61784 12.6527C6.69151 11.8331 6.6823 11.7042 6.53497 11.5016C6.32317 11.2162 5.97325 11.1609 5.70621 11.3819Z" fill="white"/>
<path d="M22.9351 12.0353C22.8061 12.1642 22.7417 12.4129 22.6956 12.9838C22.622 13.7481 22.6312 13.7573 22.8798 13.9691C23.1469 14.2085 23.5152 14.1901 23.7178 13.9322C23.9019 13.6928 23.9756 12.4221 23.8283 12.1458C23.6533 11.8419 23.1837 11.7867 22.9351 12.0353Z" fill="white"/>
<path d="M7.05984 14.752C6.03771 15.0743 5.3655 16.0228 5.38391 17.1186C5.39312 17.8092 5.54966 18.2328 5.98246 18.73C6.93092 19.7982 8.74498 19.7798 9.68423 18.6748C10.7984 17.3856 10.2459 15.3413 8.65289 14.7704C8.18326 14.6047 7.53868 14.6047 7.05984 14.752ZM8.4411 16.0136C8.63447 16.1333 8.81864 16.3635 8.93835 16.6305C9.09489 16.9896 9.11331 17.1094 9.02123 17.404C8.91073 17.7816 8.48714 18.1867 8.12801 18.2788C7.49263 18.4446 6.78359 18.0302 6.61784 17.3948C6.33238 16.3266 7.50184 15.4426 8.4411 16.0136Z" fill="white"/>
<path d="M13.7082 14.7802C13.5425 14.9736 13.5517 15.4432 13.7267 15.6182C13.9016 15.7932 15.863 15.9589 16.1208 15.8208C16.3603 15.6919 16.4339 15.2867 16.2774 15.0104C16.1208 14.7342 15.7249 14.6513 14.5278 14.6421C13.9937 14.6329 13.7911 14.6697 13.7082 14.7802Z" fill="white"/>
<path d="M18.7268 16.5933C17.8612 16.8788 17.3547 17.3208 17.0048 18.0851C16.3878 19.4479 17.1061 21.2067 18.4781 21.6672C18.9662 21.8421 19.9791 21.8513 20.4027 21.6948C21.4432 21.308 22.1062 20.3227 22.097 19.1533C22.097 18.4074 21.9129 17.8917 21.4524 17.3668C20.8447 16.6854 19.5647 16.3171 18.7268 16.5933ZM20.2277 17.9654C21.4064 18.6836 20.8355 20.6174 19.445 20.6174C18.1098 20.6174 17.4836 19.1072 18.4137 18.1496C18.9109 17.6431 19.5924 17.5694 20.2277 17.9654Z" fill="white"/>
<path d="M12.2073 19.7978C12.0231 19.9083 11.4061 21.087 11.4061 21.3356C11.4061 21.5842 11.7008 21.8145 12.0139 21.8145C12.3914 21.8145 12.4467 21.7592 12.8242 21.0225C13.1097 20.4792 13.1465 20.3411 13.0728 20.1385C12.9255 19.7518 12.548 19.6044 12.2073 19.7978Z" fill="white"/>
<path d="M16.0472 24.2465C15.6789 24.8174 16.0841 25.1765 17.1891 25.2594C17.9073 25.3146 17.9626 25.3054 18.1744 25.0936C18.7913 24.4767 18.2204 24.0439 16.7747 24.0254C16.259 24.0254 16.1854 24.0531 16.0472 24.2465Z" fill="white"/>
</svg>
