<svg width="31" height="30" viewBox="0 0 31 30" fill="none" xmlns="http://www.w3.org/2000/svg">
<path d="M22.6508 0.0894643C20.4538 0.566783 18.8322 2.58721 18.8257 4.84957C18.8192 7.05308 20.31 9.00812 22.4546 9.60968C23.187 9.81891 24.2724 9.81891 24.9981 9.60968C27.1559 9.00812 28.6402 7.05962 28.6336 4.84957C28.6271 2.57413 26.9924 0.553705 24.7824 0.0829257C24.2462 -0.0282306 23.1739 -0.0282306 22.6508 0.0894643ZM24.1351 2.80952C25.1224 3.01222 25.822 3.88186 25.822 4.90188C25.822 5.67343 25.4101 6.34691 24.6974 6.72615C24.3181 6.93539 24.2397 6.955 23.7297 6.94846C23.2785 6.94846 23.115 6.91577 22.8469 6.79154C21.585 6.18345 21.2319 4.52918 22.1539 3.50916C22.4873 3.12992 22.8862 2.88799 23.2785 2.80952C23.6839 2.73106 23.7493 2.73106 24.1351 2.80952Z" fill="white"/>
<path d="M11.4044 6.55579C10.9729 6.70618 9.65206 7.17042 8.46203 7.57581C6.5266 8.24929 6.27814 8.34737 6.02967 8.57622C5.63735 8.93584 5.50004 9.387 5.6112 9.90355C5.68312 10.2043 5.75505 10.3351 6.01005 10.5901C6.25852 10.8386 6.38275 10.9105 6.67045 10.9693C7.12162 11.0609 7.10854 11.0674 10.0836 10.0343L12.4833 9.20392L14.9222 10.3613C16.256 10.9955 17.3807 11.5382 17.4068 11.5644C17.4395 11.5905 16.1841 12.5648 14.6279 13.7221C13.0717 14.8794 11.7117 15.906 11.6136 16.0041C11.2802 16.3048 11.1559 16.6318 11.1886 17.1222C11.2279 17.8807 11.1494 17.8087 14.8633 20.2542C16.9753 21.6469 18.1522 22.4577 18.1261 22.51C18.0999 22.5492 17.2041 23.7458 16.1384 25.1712C15.0726 26.5966 14.1506 27.8455 14.0983 27.9501C13.7518 28.6432 14.0329 29.4932 14.726 29.8398C15.151 30.049 15.5433 30.0555 15.988 29.8463C16.3084 29.6959 16.4457 29.5325 18.8846 26.2762C20.2969 24.4062 21.4935 22.765 21.5458 22.6473C21.7485 22.1569 21.5981 21.3984 21.2385 21.065C21.1535 20.993 19.7738 20.0645 18.1719 19.0184C16.5699 17.9657 15.2229 17.0699 15.1772 17.0241C15.1053 16.9587 15.6349 16.5402 18.0215 14.7617C19.63 13.5586 21.0488 12.4928 21.1665 12.3882C21.4869 12.1071 21.6373 11.7671 21.6373 11.329C21.6373 10.8713 21.4542 10.4528 21.1535 10.2305C21.0423 10.1455 19.1527 9.217 16.9557 8.17082C12.2937 5.9477 12.7383 6.07847 11.4044 6.55579Z" fill="white"/>
<path d="M28.6467 8.83134C28.5028 8.91634 27.692 9.62905 26.8551 10.4137C26.0182 11.2049 25.2335 11.9372 25.1158 12.0483L24.9001 12.251L24.2789 11.9241C23.7297 11.6299 23.625 11.5972 23.2523 11.5972C22.9058 11.5972 22.7816 11.6299 22.5135 11.7933C21.925 12.153 21.6765 12.9441 21.9577 13.5588C22.1473 13.9641 22.4285 14.1799 23.5989 14.8076C24.5601 15.3242 24.717 15.3896 25.0701 15.4026C25.3447 15.4223 25.5343 15.3896 25.7108 15.3111C25.9985 15.1738 30.3467 11.1133 30.5363 10.7995C30.7063 10.5248 30.7652 9.95598 30.6606 9.64213C30.556 9.32828 30.2486 8.97519 29.9348 8.81173C29.5817 8.63518 28.9998 8.64172 28.6467 8.83134Z" fill="white"/>
<path d="M9.76977 18.6195C9.44284 18.7699 9.37092 18.8549 8.25282 20.3261L7.33741 21.5357L4.00926 23.3992C2.17845 24.4258 0.583031 25.3477 0.458797 25.4589C-0.136216 25.982 -0.155832 26.9105 0.419565 27.4859C0.811882 27.8782 1.43305 28.022 1.91037 27.8259C2.10653 27.7409 8.20051 24.3408 8.93937 23.9027C9.23361 23.7262 9.46246 23.4581 10.4629 22.1438C11.1036 21.2938 11.666 20.5157 11.7052 20.4111C11.8033 20.1495 11.7902 19.6003 11.679 19.3388C11.3783 18.6326 10.4759 18.2926 9.76977 18.6195Z" fill="white"/>
</svg>
