<svg width="353" height="353" viewBox="0 0 353 353" fill="none" xmlns="http://www.w3.org/2000/svg">
<path d="M350.667 2.33317L336.167 1.33317C329 0.833166 171.833 -9.3335 100.5 62.1665C38 124.833 54.1667 235.833 60.8333 268.666L0.5 328.833L24 352.333L84.1667 292.166C107.062 296.661 130.335 298.95 153.667 299C198.667 299 253.667 289.667 290.667 252.333C362.333 181.167 352.167 23.9998 351.667 16.8332L350.667 2.33317ZM267.333 229C226.333 270 154.5 268.166 113.667 262.333L152.5 224H229V190.667H185.833L219.167 157.333H279V124H252.5L290.667 85.8332L267.167 62.1665L229 100.5V73.9998H195.667V133.833L162.333 167.167V124H129V200.5L90 239.5C85 198.667 83.1667 126.833 123.333 85.8332C173.167 36.8332 279 33.4998 319 33.9998C319.5 73.9998 316.167 179.833 267.167 228.833L267.333 229Z" fill="black"/>
</svg>
