<svg width="38" height="30" viewBox="0 0 38 30" fill="none" xmlns="http://www.w3.org/2000/svg">
<path d="M15.8325 0.228609C15.7322 0.365291 15.6411 0.501973 15.6411 0.538421C15.6411 0.629542 16.443 3.27205 16.5614 3.57275C16.7437 4.00102 17.4089 4.03747 17.6367 3.61831C17.7642 3.39051 17.746 3.28117 17.3451 1.93257C17.0991 1.13982 16.8348 0.392627 16.7437 0.265058C16.5068 -0.0720902 16.0785 -0.0903144 15.8325 0.228609Z" fill="white"/>
<path d="M20.4615 2.81646C19.9421 3.42697 19.4774 3.99192 19.4318 4.09215C19.2222 4.54776 19.687 5.03981 20.1608 4.85757C20.4342 4.75734 22.2748 2.67066 22.3477 2.37908C22.4388 2.03282 22.1655 1.723 21.7645 1.723C21.4365 1.723 21.3727 1.77768 20.4615 2.81646Z" fill="white"/>
<path d="M24.9355 4.53859C22.1563 5.83251 19.8054 6.9533 19.7233 7.0353C19.6322 7.12643 19.5593 7.27222 19.5593 7.37245C19.5593 7.47269 20.0149 8.52969 20.5708 9.72338C21.1357 10.908 21.728 12.1836 21.9011 12.5481C23.2133 15.3911 23.8329 16.5483 24.3523 17.1133C25.0357 17.8605 26.0289 18.5166 26.9766 18.8264C27.6235 19.0451 27.8513 19.0724 28.8992 19.0724C29.7102 19.0633 30.2114 19.0268 30.4939 18.9266L30.9039 18.7899L32.216 21.6056C32.9359 23.1455 33.51 24.4303 33.4917 24.4394C33.4735 24.4577 32.8448 24.7492 32.0976 25.0955C31.3139 25.46 30.6852 25.8154 30.6123 25.9247C30.3663 26.3074 30.6488 26.7812 31.1317 26.7812C31.3686 26.7812 37.7927 23.8107 37.8929 23.6558C37.9293 23.6011 37.9658 23.4189 37.9658 23.2549C37.9658 22.9542 37.7015 22.6808 37.4191 22.6808C37.3462 22.6808 36.6901 22.9633 35.9611 23.3004L34.649 23.92L33.346 21.1409C32.6261 19.61 32.0429 18.3434 32.0429 18.3161C32.0429 18.2797 32.2525 18.1247 32.5076 17.9516C34.0931 16.8673 35.1684 14.5984 35.0226 12.6119C34.9861 12.211 34.9041 11.646 34.8221 11.3453C34.6672 10.7622 30.9312 2.59771 30.6943 2.33346C30.6214 2.25145 30.4392 2.17855 30.2752 2.18766C30.1112 2.18766 27.9242 3.15355 24.9355 4.53859ZM31.7422 7.35423C32.7081 9.4409 33.5373 11.2633 33.592 11.4091C33.6922 11.7007 33.7287 11.7007 32.3618 11.2998C31.6511 11.0902 31.3868 11.0629 30.3116 11.072C29.2455 11.072 28.963 11.1084 28.1703 11.3362C27.3046 11.5731 27.1406 11.5914 25.0266 11.6278L22.7941 11.6643L21.9285 9.78716C21.4546 8.75749 21.0537 7.86451 21.0355 7.80072C21.0264 7.73694 22.8306 6.84395 25.4549 5.62293C27.906 4.49303 29.9198 3.55448 29.9471 3.55448C29.9745 3.54537 30.7854 5.25844 31.7422 7.35423ZM31.6875 12.3932C32.0611 12.4935 32.7081 12.6484 33.1273 12.7304L33.8836 12.8853L33.8198 13.4138C33.5829 15.5734 32.1158 17.25 29.9927 17.8058C28.4527 18.2068 26.7488 17.7147 25.464 16.5028C24.8808 15.9561 24.7806 15.792 24.1063 14.4252C23.7144 13.6051 23.3864 12.9217 23.3864 12.9035C23.3864 12.8853 24.2976 12.8397 25.4184 12.8124C27.2044 12.7759 27.5415 12.7395 28.307 12.539C29.4277 12.2383 29.5006 12.2292 30.3207 12.211C30.7672 12.2019 31.2411 12.2657 31.6875 12.3932Z" fill="white"/>
<path d="M11.9053 4.18321C11.7048 4.38368 11.6683 4.64793 11.8141 4.91218C11.9144 5.09442 15.0216 6.37012 15.3679 6.37012C15.8235 6.37012 16.0968 5.65026 15.7597 5.34956C15.5319 5.15821 12.5796 4.00097 12.3062 4.00097C12.1877 4.00097 12.0055 4.08298 11.9053 4.18321Z" fill="white"/>
<path d="M7.42205 5.47681C7.20336 5.64083 3.37627 13.9511 3.18492 14.68C2.97534 15.4546 2.97534 16.9763 3.18492 17.7599C3.4765 18.826 3.95033 19.6461 4.7522 20.448C5.15313 20.8489 5.59963 21.2681 5.75453 21.3683L6.01878 21.5597L4.71575 24.348C3.99589 25.8879 3.3945 27.1454 3.37627 27.1454C3.36716 27.1454 2.78398 26.8812 2.08235 26.5531C1.37161 26.2251 0.715534 25.9608 0.606189 25.9608C0.123247 25.9608 -0.159229 26.4347 0.0959104 26.8174C0.177919 26.9541 1.36249 27.5463 3.53118 28.5487C7.09401 30.2071 7.13957 30.2162 7.42205 29.6968C7.6863 29.223 7.49495 29.059 5.90944 28.33L4.4515 27.6557L4.66108 27.2365C4.77042 27.0087 5.37182 25.7604 5.98233 24.4573C6.60196 23.1543 7.11224 22.0791 7.12135 22.0608C7.13046 22.0517 7.37649 22.0973 7.67719 22.1793C8.46994 22.3798 9.97344 22.3615 10.8118 22.1246C12.1786 21.751 13.3358 20.9492 14.1286 19.8284C14.3655 19.5003 15.2494 17.7053 16.2608 15.5275C17.2085 13.4681 18.0923 11.5728 18.229 11.2994C18.5115 10.7163 18.5206 10.5523 18.311 10.3062C18.147 10.124 8.2148 5.48592 7.80476 5.40391C7.67719 5.37657 7.50406 5.41302 7.42205 5.47681ZM12.5339 8.86651C14.9487 9.9873 16.9442 10.9259 16.9715 10.9532C16.9989 10.9714 16.5979 11.91 16.0786 13.0216L15.1491 15.0354L14.8211 14.9807C14.648 14.9443 14.2197 14.7985 13.8643 14.6436C12.9349 14.2335 12.7709 14.1971 11.7685 14.1971C11.0396 14.1971 10.6113 14.2609 9.62718 14.5069C7.99611 14.9261 7.26714 14.9807 6.08257 14.8076C5.55407 14.7256 4.97089 14.6618 4.77954 14.6618H4.43328L4.55173 14.3611C4.94355 13.4499 8.03256 6.8254 8.07812 6.8254C8.11457 6.8254 10.1101 7.74572 12.5339 8.86651ZM13.2811 15.7188C13.6638 15.8828 14.1195 16.056 14.3017 16.0924L14.6297 16.1653L14.0466 17.4137C13.3723 18.8625 13.0898 19.309 12.4337 19.9013C10.4837 21.6508 7.51317 21.5688 5.66341 19.719C4.77042 18.826 4.16902 17.4319 4.15991 16.2291V15.8464H4.55173C4.76131 15.8464 5.39916 15.9102 5.97322 15.9831C7.23069 16.1562 8.46994 16.0651 9.78209 15.7006C10.7753 15.4272 11.6865 15.3088 12.2241 15.3726C12.4246 15.3908 12.8984 15.5457 13.2811 15.7188Z" fill="white"/>
</svg>
