<svg width="22" height="30" viewBox="0 0 22 30" fill="none" xmlns="http://www.w3.org/2000/svg">
<path d="M6.89377 0.162489C6.07502 0.437487 5.31878 1.04998 4.96878 1.71248L4.80003 2.03123L4.13753 2.01248C3.58129 1.99373 3.40629 2.01248 3.06879 2.12498C2.31879 2.37498 1.68129 2.90623 1.3563 3.54997C1.16255 3.93747 1.15005 4.11872 1.32505 4.33747C1.42505 4.46247 1.5063 4.49997 1.70004 4.49997C1.97504 4.49997 2.06879 4.41872 2.40629 3.91247C2.63129 3.56872 3.08129 3.22497 3.43129 3.12497C3.80003 3.02497 4.30628 3.04997 4.76253 3.19997C5.16253 3.32497 5.18753 3.33122 5.35003 3.22497C5.43753 3.16872 5.54378 3.04372 5.58128 2.94997C5.96877 2.00623 6.28752 1.61248 6.91877 1.30623C8.03751 0.756236 9.35001 1.11248 10.075 2.16248C10.3313 2.53748 10.525 2.56873 11.025 2.30623C11.3437 2.13748 11.5 2.09998 11.9187 2.07498C12.3687 2.04998 12.475 2.06873 12.7687 2.19998C12.9562 2.28748 13.2062 2.44373 13.3312 2.55623C13.6062 2.79373 13.9437 3.43747 13.9437 3.71247C13.9437 4.01872 14.0625 4.36872 14.1937 4.43747C14.3937 4.54372 14.7437 4.51247 14.8812 4.37497C14.9812 4.27497 15.0062 4.16872 15.0062 3.85622C15.0062 2.61873 14.1062 1.47498 12.825 1.08748C12.4125 0.956235 11.5375 0.974985 11.0937 1.11873L10.7312 1.24373L10.3813 0.906235C9.73125 0.287488 8.96251 -1.04049e-05 7.98126 -1.04049e-05C7.47502 -1.04049e-05 7.25627 0.0312394 6.89377 0.162489Z" fill="white"/>
<path d="M0.850049 5.61895C0.543801 5.7627 0.231302 6.08145 0.106303 6.3877C-0.0311966 6.71895 -0.0374466 8.98144 0.100053 9.24393C0.256302 9.55018 0.70005 9.60643 0.937549 9.35018C1.0688 9.20643 1.07505 9.16893 1.06255 8.00019C1.05005 6.8502 1.0563 6.79395 1.18755 6.66895C1.3188 6.5377 1.3688 6.53145 3.30629 6.5127C5.70628 6.4877 5.80002 6.5002 5.91877 6.78145C5.96877 6.9002 6.00627 7.10019 6.00627 7.23144C6.00627 7.55019 6.31252 8.16269 6.60627 8.45019C6.74377 8.57519 7.01252 8.75644 7.21252 8.84394C7.53127 8.99394 7.63752 9.01269 8.08751 8.98769C9.15626 8.94394 9.85625 8.29394 10.0125 7.20644C10.0813 6.7377 10.1938 6.5627 10.45 6.5627C10.9625 6.5627 10.9687 6.59395 11.0062 8.87519C11.0375 10.6689 11.05 10.8689 11.1625 11.0939C11.4812 11.7314 12.1562 12.0814 12.8 11.9377C13.2312 11.8439 13.6125 11.5502 13.8125 11.1564C13.975 10.8502 13.975 10.8439 14.0062 8.80019C14.0375 6.61895 14.0437 6.6002 14.35 6.55645C14.5625 6.5252 14.8125 6.61895 14.8812 6.75645C14.9312 6.8377 14.95 7.30644 14.9437 8.04394C14.9375 9.16268 14.9437 9.21268 15.075 9.35018C15.3125 9.60643 15.7562 9.55018 15.9125 9.24393C16.05 8.98144 16.0437 6.71895 15.9062 6.3877C15.6687 5.81895 15.1625 5.5002 14.475 5.5002C13.9562 5.5002 13.6125 5.6377 13.3562 5.94395C13.0125 6.3502 13.0062 6.4002 13.0062 8.51269C13.0062 10.2502 12.9937 10.4939 12.8937 10.6877C12.8125 10.8627 12.7437 10.9127 12.5875 10.9252C12.3062 10.9502 12.1437 10.8502 12.0687 10.5752C12.0312 10.4377 12.0062 9.57518 12.0062 8.48144C12.0062 6.43145 11.9937 6.3502 11.6125 5.94395C11.3187 5.6377 10.9875 5.5002 10.5063 5.5002C9.61251 5.5002 9.10001 6.00645 8.97501 7.0127C8.85626 7.97519 7.73751 8.29394 7.22502 7.51269C7.13752 7.37519 7.05627 7.14394 7.03752 6.9377C6.97502 6.43145 6.89377 6.20645 6.67502 5.95645C6.27502 5.50645 6.26877 5.5002 3.53754 5.5002C1.2938 5.5002 1.0813 5.5127 0.850049 5.61895Z" fill="white"/>
<path d="M10.5125 14.5996C10.075 14.7184 9.81873 14.8746 9.51249 15.2246C9.06249 15.7371 8.92499 16.4933 9.16249 17.1871C9.24374 17.4371 9.37499 17.6246 9.62498 17.8808C10.2 18.4496 10.2437 18.4621 12.675 18.4871C14.7 18.5058 14.75 18.5058 14.875 18.3808C15.0312 18.2246 15.05 17.8371 14.9187 17.6496C14.8312 17.5371 14.7187 17.5308 12.8062 17.4996C10.9125 17.4683 10.775 17.4621 10.5687 17.3371C9.89998 16.9433 9.89998 16.0558 10.5687 15.6621C10.7812 15.5371 10.875 15.5309 13.3187 15.5309C15.7875 15.5309 15.8562 15.5371 16.1 15.6621C16.6125 15.9371 16.8937 16.3496 16.9749 16.9308C17.0562 17.5246 16.9562 17.4996 19.2562 17.4996C21.1749 17.4996 21.2624 17.4933 21.3812 17.3746C21.5312 17.2246 21.5499 16.8308 21.4187 16.6496C21.3374 16.5371 21.2187 16.5308 19.6562 16.4996L17.9874 16.4683L17.8687 16.1246C17.6437 15.4559 17.0562 14.8684 16.3562 14.6184C16.0312 14.5059 15.8312 14.4996 13.4312 14.5059C11.375 14.5059 10.7812 14.5246 10.5125 14.5996Z" fill="white"/>
<path d="M1.73759 17.0932C1.30634 17.1869 0.987589 17.4244 0.725091 17.8432C0.550092 18.1244 0.537592 18.1869 0.537592 18.7494C0.537592 19.3244 0.550092 19.3744 0.737591 19.6744L0.93759 19.9994L0.737591 20.3244C0.550092 20.6244 0.537592 20.6744 0.537592 21.2494C0.537592 21.8244 0.550092 21.8744 0.737591 22.1744L0.93759 22.4994L0.737591 22.8244C0.562592 23.1056 0.537592 23.2056 0.512592 23.6681C0.493842 24.1306 0.512592 24.2306 0.662591 24.5306C0.83759 24.8994 1.21259 25.2494 1.58759 25.4056C1.90008 25.5306 4.68757 25.5431 5.18132 25.4181C6.33756 25.1119 6.84381 23.7869 6.18756 22.7869L5.99381 22.4994L6.18756 22.2119C6.28756 22.0556 6.40631 21.7744 6.44381 21.5869C6.53756 21.1494 6.44381 20.6744 6.18756 20.2869L5.99381 19.9994L6.18756 19.7119C6.84381 18.7119 6.33756 17.3869 5.18132 17.0807C4.75007 16.9744 2.25633 16.9807 1.73759 17.0932ZM5.10632 18.1369C5.58132 18.3932 5.55007 19.1744 5.05632 19.3807C4.77507 19.4994 2.25008 19.5057 1.96883 19.3869C1.60634 19.2369 1.46259 18.7557 1.66259 18.3744C1.71884 18.2682 1.76884 18.1869 1.77509 18.1869C1.78134 18.1869 1.90008 18.1432 2.03758 18.0932C2.41258 17.9557 4.83132 17.9869 5.10632 18.1369ZM5.10632 20.6369C5.58132 20.8931 5.55007 21.6744 5.05632 21.8806C4.77507 21.9994 2.25008 22.0056 1.96883 21.8869C1.60634 21.7369 1.46259 21.2556 1.66259 20.8744C1.71884 20.7681 1.76884 20.6869 1.77509 20.6869C1.78134 20.6869 1.90008 20.6431 2.03758 20.5931C2.41258 20.4557 4.83132 20.4869 5.10632 20.6369ZM5.10632 23.1369C5.58132 23.3931 5.55007 24.1744 5.05632 24.3806C4.77507 24.4994 2.25008 24.5056 1.96883 24.3869C1.60634 24.2369 1.46259 23.7556 1.66259 23.3744C1.71884 23.2681 1.76884 23.1869 1.77509 23.1869C1.78134 23.1869 1.90008 23.1431 2.03758 23.0931C2.41258 22.9556 4.83132 22.9869 5.10632 23.1369Z" fill="white"/>
<path d="M17.15 23.6373C17.075 23.7186 17 23.9123 16.975 24.0936C16.9187 24.4685 16.7687 24.781 16.5312 25.0248C16.2312 25.3185 15.9375 25.431 15.3375 25.4748C14.9062 25.506 14.7562 25.5435 14.65 25.6435C14.4562 25.8123 14.4562 26.1998 14.6375 26.381C14.7625 26.506 14.825 26.5123 15.5 26.4873C16.1312 26.4623 16.2687 26.4373 16.5687 26.2935C17.225 25.9748 17.6562 25.4998 17.8812 24.856L17.9937 24.531L19.6624 24.4998C21.2187 24.4685 21.3374 24.4623 21.4187 24.3498C21.5499 24.1686 21.5312 23.7748 21.3812 23.6248C21.2624 23.5061 21.1749 23.4998 19.2687 23.4998C17.2875 23.4998 17.275 23.4998 17.15 23.6373Z" fill="white"/>
<path d="M0.337501 10.6625C0.187502 10.8125 0.181252 10.85 0.218751 11.2062C0.375001 12.5562 0.862498 14.7937 1.3375 16.3124L1.56874 17.0312L3.34999 17.0124C5.11873 16.9937 5.13748 16.9937 5.46248 17.1437C6.53122 17.6312 6.83747 18.8999 6.11872 19.8874C6.05622 19.9812 6.05622 20.0187 6.11872 20.1062C6.16247 20.1687 6.26872 20.3562 6.34997 20.5312C6.62497 21.0874 6.53747 21.8124 6.11872 22.3874C6.05622 22.4812 6.05622 22.5187 6.11872 22.6062C6.83122 23.5937 6.53122 24.8624 5.47498 25.3499C5.18123 25.4874 5.08748 25.4999 3.97498 25.4999H2.78124L2.70624 26.0749C2.66249 26.3936 2.54374 27.0749 2.44374 27.5811C2.28749 28.3561 2.26874 28.5561 2.31874 28.7936C2.40624 29.1624 2.51249 29.3624 2.76874 29.6061C3.19374 30.0186 2.96874 29.9999 8.00621 29.9999C13.0437 29.9999 12.8187 30.0186 13.2437 29.6061C13.4999 29.3624 13.6062 29.1624 13.6937 28.7936C13.7437 28.5561 13.7249 28.3561 13.5687 27.5811C13.2124 25.7624 13.0687 24.4311 13.0624 22.8312C13.0562 21.4437 13.2062 20.5812 13.6937 19.1624C13.7937 18.8499 13.8812 18.5812 13.8812 18.5562C13.8812 18.5312 13.0999 18.4999 12.1499 18.4874L10.4125 18.4687L10.1 18.2999C9.72495 18.0999 9.38746 17.7562 9.18746 17.3749C9.06246 17.1374 9.03746 16.9999 9.03746 16.4999C9.03746 15.9749 9.05621 15.8687 9.20621 15.5937C9.40621 15.2187 9.74995 14.8812 10.1312 14.6812C10.4125 14.5312 10.4312 14.5312 12.7999 14.5124L15.1812 14.4937L15.3124 13.925C15.4687 13.2625 15.7249 11.775 15.7937 11.2062C15.8312 10.85 15.8249 10.8125 15.6749 10.6625C15.5187 10.5062 15.4874 10.5 14.7562 10.5H14.0062V10.6687C14.0062 10.8937 13.7499 11.4312 13.5624 11.6062C13.1124 12.0125 12.3874 12.1125 11.8374 11.8437C11.3874 11.6187 11.0062 11.075 11.0062 10.6562V10.5H5.75622H0.5L0.337501 10.6625Z" fill="white"/>
</svg>
