<svg width="12" height="19" viewBox="0 0 12 19" fill="none" xmlns="http://www.w3.org/2000/svg">
<path d="M4.84935 0.0524559C4.28478 0.161407 3.83412 0.314928 3.30918 0.572449C1.62539 1.39948 0.506168 2.86042 0.0901741 4.7621C-0.038586 5.36629 -0.0286814 6.64894 0.114936 7.48588C0.600262 10.274 2.09586 13.5475 4.51754 17.1181C5.1861 18.1086 5.84971 19 5.91409 19C6.02304 19 7.45921 16.9547 8.27634 15.6324C10.1384 12.6313 11.2973 9.87784 11.7132 7.48588C11.8569 6.64894 11.8668 5.36629 11.738 4.7621C11.4706 3.54384 10.9258 2.52366 10.0938 1.69662C9.37576 0.973587 8.38529 0.40407 7.41464 0.146549C7.0036 0.0375996 6.80056 0.0177898 6.06266 0.0029335C5.47334 -0.00697136 5.0821 0.00788498 4.84935 0.0524559ZM6.4737 3.27641C7.15217 3.42003 7.89006 3.93507 8.23673 4.50954C8.55863 5.04439 8.65767 5.39105 8.65767 6.00018C8.65767 6.4657 8.63786 6.59446 8.52891 6.87674C8.34568 7.36702 8.10301 7.73844 7.78111 8.03063C6.6916 9.02109 5.13658 9.02109 4.04707 8.03063C3.72517 7.73844 3.48251 7.36702 3.29927 6.87674C3.19032 6.59446 3.17051 6.4657 3.17051 6.00018C3.17051 5.53467 3.19032 5.4059 3.29927 5.12362C3.66079 4.16287 4.32935 3.55374 5.2802 3.30117C5.716 3.18727 6.028 3.18232 6.4737 3.27641Z" fill="white"/>
</svg>
