<svg width="30" height="30" viewBox="0 0 30 30" fill="none" xmlns="http://www.w3.org/2000/svg">
<path d="M13.4107 0.0656986C7.94264 0.542404 3.21064 3.3746 1.1566 7.40556C-0.0141319 9.69094 -0.294547 12.0394 0.308345 14.444C0.799072 16.3859 1.80857 18.0754 3.39291 19.6246C4.4655 20.6622 5.30674 21.2721 6.74387 22.0362L7.48697 22.4358L7.50099 26.2144L7.52202 30L11.546 26.9855L15.5699 23.9641H15.9625C16.5444 23.9641 17.9605 23.7748 18.9419 23.5715C22.1316 22.8985 25.3284 21.1038 27.2212 18.9306C30.1585 15.5586 30.7824 11.3314 28.8967 7.54577C27.0529 3.83728 22.9589 1.07519 18.1077 0.268999C16.4813 0.00260544 14.946 -0.0674992 13.4107 0.0656986ZM22.4191 9.03197V10.5041H14.9881H7.55707V9.03197V7.55979H14.9881H22.4191V9.03197ZM17.9324 14.9908V16.463H12.7448H7.55707V14.9908V13.5186H12.7448H17.9324V14.9908Z" fill="#151515"/>
</svg>
