<svg width="30" height="30" viewBox="0 0 30 30" fill="none" xmlns="http://www.w3.org/2000/svg">
<path d="M13.095 0.0894432C10.3878 0.441021 7.9092 1.47817 5.74113 3.15403C5.05556 3.68725 3.88949 4.83574 3.32111 5.5389C1.70385 7.54289 0.631538 9.91018 0.174487 12.4884C0.0104171 13.4025 -0.0540388 15.5999 0.0514345 16.6019C0.303399 18.9399 1.11789 21.231 2.38357 23.1764C2.95781 24.0553 3.46174 24.6823 4.24693 25.4851C6.70211 28.0047 9.80186 29.5282 13.3294 29.9384C14.1145 30.0321 16.0248 30.0146 16.8744 29.915C21.2574 29.37 25.1717 26.9148 27.6151 23.1764C28.8457 21.2954 29.6308 19.1332 29.9121 16.8773C30.0293 15.928 30.0293 14.0822 29.9121 13.1271C29.373 8.77927 26.9237 4.85332 23.2321 2.42743C21.3043 1.16175 19.1597 0.376564 16.8744 0.0894432C15.9838 -0.0160313 13.9388 -0.0160313 13.095 0.0894432ZM18.3628 6.58777C18.4272 7.20303 18.6147 7.84759 18.9019 8.43941C19.5054 9.65822 20.689 10.4493 22.1364 10.5899L22.4997 10.6251V12.1134V13.6017L22.195 13.5666C20.7769 13.4025 19.646 13.0099 18.7671 12.3888C18.5679 12.2482 18.3921 12.131 18.3745 12.131C18.3628 12.131 18.3335 13.6955 18.3218 15.5999C18.2983 19.4438 18.2983 19.4614 17.8823 20.5278C17.267 22.1158 15.8842 23.2994 14.2552 23.6393C12.8723 23.9264 11.589 23.7565 10.3878 23.1178C8.97565 22.3678 8.04397 21.1841 7.66309 19.6547C7.46973 18.8754 7.48144 17.6566 7.69239 16.848C8.12014 15.2249 9.1573 13.883 10.5109 13.2209C11.2843 12.8341 11.9172 12.6935 12.8606 12.6935C13.2825 12.6935 13.6575 12.7169 13.6985 12.7404C13.7512 12.7697 13.7688 13.1857 13.7688 14.3342V15.8811H13.2239C12.2512 15.8811 11.5656 16.1624 11.091 16.7601C10.6984 17.2582 10.5812 17.6097 10.5812 18.3422C10.5753 19.309 10.8449 19.895 11.4836 20.3227C12.3684 20.9146 13.6516 20.8794 14.4954 20.2348C14.9349 19.9009 15.2572 19.3735 15.3392 18.8754C15.3919 18.5824 15.4095 16.6898 15.4095 12.3419V6.21276H16.8686H18.3218L18.3628 6.58777Z" fill="white"/>
</svg>
