<svg width="16" height="16" viewBox="0 0 16 16" fill="none" xmlns="http://www.w3.org/2000/svg">
<path d="M14.659 9.16763C14.4115 8.82608 14.2783 8.41509 14.2783 7.99333C14.2783 7.57157 14.4115 7.16058 14.659 6.81903L15.1661 6.11845C15.2281 6.0329 15.2689 5.93385 15.2851 5.82945C15.3013 5.72506 15.2926 5.61829 15.2595 5.51795C15.226 5.41867 15.1701 5.32846 15.096 5.25438C15.0219 5.1803 14.9317 5.12436 14.8325 5.09093L14.0118 4.82405C13.6097 4.69436 13.2593 4.4403 13.0111 4.09851C12.7628 3.75672 12.6296 3.3449 12.6306 2.92248V2.05509C12.6306 1.94978 12.6055 1.84599 12.5577 1.75219C12.5098 1.6584 12.4404 1.57727 12.3551 1.51545C12.2699 1.45362 12.1712 1.41286 12.0672 1.39648C11.9631 1.38011 11.8567 1.38859 11.7566 1.42124L10.9292 1.68812C10.5276 1.8181 10.0951 1.81775 9.69364 1.68713C9.29219 1.55651 8.94232 1.3023 8.69405 0.960856L8.18696 0.260277C8.12222 0.179082 8.04001 0.113519 7.94644 0.0684593C7.85288 0.0233992 7.75036 0 7.64652 0C7.54267 0 7.44015 0.0233992 7.34659 0.0684593C7.25302 0.113519 7.17081 0.179082 7.10607 0.260277L6.59898 0.960856C6.35071 1.3023 6.00084 1.55651 5.59939 1.68713C5.19794 1.81775 4.76546 1.8181 4.3638 1.68812L3.53645 1.42124C3.43633 1.38859 3.3299 1.38011 3.22587 1.39648C3.12184 1.41286 3.02317 1.45362 2.93791 1.51545C2.85266 1.57727 2.78325 1.6584 2.73537 1.75219C2.68748 1.84599 2.66248 1.94978 2.6624 2.05509V2.92248C2.66342 3.3449 2.5302 3.75672 2.28195 4.09851C2.03371 4.4403 1.68328 4.69436 1.28126 4.82405L0.46058 5.09093C0.361292 5.12436 0.271082 5.1803 0.197003 5.25438C0.122924 5.32846 0.0669853 5.41867 0.0335603 5.51795C0.000474032 5.61829 -0.00831074 5.72506 0.007929 5.82945C0.0241687 5.93385 0.0649687 6.0329 0.126971 6.11845L0.634056 6.81903C0.88149 7.16058 1.01471 7.57157 1.01471 7.99333C1.01471 8.41509 0.88149 8.82608 0.634056 9.16763L0.126971 9.86821C0.0649687 9.95376 0.0241687 10.0528 0.007929 10.1572C-0.00831074 10.2616 0.000474032 10.3684 0.0335603 10.4687C0.0669853 10.568 0.122924 10.6582 0.197003 10.7323C0.271082 10.8064 0.361292 10.8623 0.46058 10.8957L1.28126 11.1626C1.68328 11.2923 2.03371 11.5464 2.28195 11.8882C2.5302 12.2299 2.66342 12.6418 2.6624 13.0642V13.9316C2.66248 14.0369 2.68748 14.1407 2.73537 14.2345C2.78325 14.3283 2.85266 14.4094 2.93791 14.4712C3.02317 14.533 3.12184 14.5738 3.22587 14.5902C3.3299 14.6066 3.43633 14.5981 3.53645 14.5654L4.35713 14.2985C4.75965 14.1664 5.19376 14.1656 5.59674 14.2963C5.99972 14.4271 6.35071 14.6825 6.59898 15.0258L7.10607 15.7264C7.16836 15.8112 7.24975 15.8802 7.34363 15.9277C7.43752 15.9752 7.54128 16 7.64652 16C7.75175 16 7.85551 15.9752 7.9494 15.9277C8.04328 15.8802 8.12467 15.8112 8.18696 15.7264L8.69405 15.0258C8.94274 14.683 9.29375 14.4279 9.69659 14.2972C10.0994 14.1666 10.5333 14.167 10.9359 14.2985L11.7566 14.5654C11.8567 14.5981 11.9631 14.6066 12.0672 14.5902C12.1712 14.5738 12.2699 14.533 12.3551 14.4712C12.4404 14.4094 12.5098 14.3283 12.5577 14.2345C12.6055 14.1407 12.6306 14.0369 12.6306 13.9316V13.0642C12.6296 12.6418 12.7628 12.2299 13.0111 11.8882C13.2593 11.5464 13.6097 11.2923 14.0118 11.1626L14.8325 10.8957C14.9317 10.8623 15.0219 10.8064 15.096 10.7323C15.1701 10.6582 15.226 10.568 15.2595 10.4687C15.2926 10.3684 15.3013 10.2616 15.2851 10.1572C15.2689 10.0528 15.2281 9.95376 15.1661 9.86821L14.659 9.16763ZM10.7891 7.13062L7.45302 10.4667C7.3279 10.5918 7.15822 10.6621 6.9813 10.6621C6.80438 10.6621 6.6347 10.5918 6.50958 10.4667L4.50792 8.46505C4.4442 8.40351 4.39337 8.32988 4.3584 8.24848C4.32343 8.16707 4.30502 8.07952 4.30425 7.99093C4.30348 7.90234 4.32037 7.81448 4.35391 7.73248C4.38746 7.65048 4.43701 7.57599 4.49965 7.51334C4.5623 7.45069 4.6368 7.40115 4.71879 7.3676C4.80079 7.33405 4.88865 7.31717 4.97724 7.31794C5.06584 7.31871 5.15339 7.33712 5.23479 7.37208C5.3162 7.40705 5.38982 7.45788 5.45137 7.52161L6.9793 9.05154L9.84366 6.18717C9.9695 6.06563 10.138 5.99838 10.313 5.9999C10.4879 6.00142 10.6553 6.07159 10.779 6.1953C10.9027 6.31901 10.9729 6.48635 10.9744 6.6613C10.9759 6.83624 10.9086 7.00478 10.7871 7.13062H10.7891Z" fill="white"/>
</svg>
